<svg xmlns="http://www.w3.org/2000/svg" width="600" height="600" viewBox="0 0 158.75 158.75"><path d="M15.044 12.562a3.284 3.284 0 0 1-3.284 3.283 3.284 3.284 0 0 1-3.284-3.283 3.284 3.284 0 0 1 3.284-3.284 3.284 3.284 0 0 1 3.284 3.284" style="fill:#9a6292;stroke-width:1.85208;stroke-linecap:round;stroke-linejoin:round" transform="matrix(24.17266 0 0 24.17266 -204.719 -224.274)"/><g style="fill:#fff"><path d="M154.919 95.944c-.526.001-1.042.213-1.512.45a5.2 5.2 0 0 0-1.489 1.11c-.456.498-.865 1.078-1.063 1.724-.166.543-.173 1.143-.07 1.7.086.473.247.965.566 1.324.284.319.706.501 1.11.638.174.058.362.058.544.07.707.05 2.126.024 2.126.024s.49-.002.709-.094c.2-.085.411-.387.52-.615.137-.216 1.613-3.165 1.613-3.165h-2.677l-.661 1.193h1.215l-.677 1.17s-1.406.106-2.097 0c-.18-.029-.391-.038-.52-.166-.182-.181-.217-.477-.236-.733-.032-.43.046-.878.212-1.275.166-.395.44-.75.756-1.04.319-.29.71-.505 1.11-.661.218-.085.453-.137.686-.142 1.994-.038 6.118.024 6.118.024l-3.212 5.575h2.126l3.118-5.646h1.181l1.488 2.032-3.07 3.59h1.913l1.96-2.244.284.071 1.488 2.102h1.867l-5.127-7.04s-7.086.02-10.3.024M168.219 99.098 167.297 98l1.961-2.08h1.902z" style="stroke-width:.264583px" transform="matrix(5.72279 0 0 5.72279 -841.856 -508.622)"/></g><path d="m98.506 15.338.233.73h.508l-.837-2.574h-.6l-.824 2.573h.485l.222-.729zm-.737-.355.198-.634c.042-.153.084-.332.123-.481h.007c.038.149.08.324.13.481l.202.634z" style="fill:#fff;stroke-width:1.4542" transform="matrix(17.5 0 0 17.5 -1638.187 -144.448)"/></svg>